{
  "accessors": [
    {
      "bufferView": 2,
      "componentType": 5126,
      "count": 27823,
      "max": [
        0.37136992812156677,
        1.8246722221374512,
        0.20162020623683929
      ],
      "min": [
        -0.37136992812156677,
        -0.006360979750752449,
        -0.10704174637794495
      ],
      "type": "VEC3"
    },
    {
      "bufferView": 2,
      "byteOffset": 333876,
      "componentType": 5126,
      "count": 27823,
      "max": [
        0.99998056888580322,
        0.99978721141815186,
        1
      ],
      "min": [
        -0.99998068809509277,
        -1,
        -0.99999982118606567
      ],
      "type": "VEC3"
    },
    {
      "bufferView": 3,
      "componentType": 5126,
      "count": 27823,
      "max": [
        1,
        0.99999982118606567,
        0.99999445676803589,
        1
      ],
      "min": [
        -1,
        -0.99992513656616211,
        -0.99995452165603638,
        -1
      ],
      "type": "VEC4"
    },
    {
      "bufferView": 3,
      "byteOffset": 445168,
      "componentType": 5126,
      "count": 27823,
      "max": [
        1,
        1,
        1,
        1
      ],
      "min": [
        0.99607843160629272,
        0.99607843160629272,
        0.99607843160629272,
        0.99607843160629272
      ],
      "type": "VEC4"
    },
    {
      "bufferView": 1,
      "componentType": 5126,
      "count": 27823,
      "max": [
        1.9977610111236572,
        0.99800002574920654
      ],
      "min": [
        0.0020000000949949026,
        0.0020000000949949026
      ],
      "type": "VEC2"
    },
    {
      "bufferView": 0,
      "componentType": 5125,
      "count": 128271,
      "max": [
        27822
      ],
      "min": [
        0
      ],
      "type": "SCALAR"
    }
  ],
  "asset": {
    "extras": {
      "author": "soidev (https://sketchfab.com/soidev)",
      "license": "CC-BY-4.0 (http://creativecommons.org/licenses/by/4.0/)",
      "source": "https://sketchfab.com/models/b8e05af2837d483190d196928b2bd9dc",
      "title": "Skeleton"
    },
    "generator": "Sketchfab-3.36.3",
    "version": "2.0"
  },
  "bufferViews": [
    {
      "buffer": 0,
      "byteLength": 513084,
      "byteOffset": 0,
      "name": "floatBufferViews",
      "target": 34963
    },
    {
      "buffer": 0,
      "byteLength": 222584,
      "byteOffset": 513084,
      "byteStride": 8,
      "name": "floatBufferViews",
      "target": 34962
    },
    {
      "buffer": 0,
      "byteLength": 667752,
      "byteOffset": 735668,
      "byteStride": 12,
      "name": "floatBufferViews",
      "target": 34962
    },
    {
      "buffer": 0,
      "byteLength": 890336,
      "byteOffset": 1403420,
      "byteStride": 16,
      "name": "floatBufferViews",
      "target": 34962
    }
  ],
  "buffers": [
    {
      "byteLength": 2293756,
      "uri": "scene.bin"
    }
  ],
  "images": [
    {
      "uri": "textures/Skeleton_baseColor.png"
    },
    {
      "uri": "textures/Skeleton_metallicRoughness.png"
    },
    {
      "uri": "textures/Skeleton_normal.png"
    }
  ],
  "materials": [
    {
      "doubleSided": true,
      "name": "Skeleton",
      "normalTexture": {
        "index": 2,
        "scale": 1,
        "texCoord": 0
      },
      "occlusionTexture": {
        "index": 1,
        "strength": 1,
        "texCoord": 0
      },
      "pbrMetallicRoughness": {
        "baseColorFactor": [
          1,
          1,
          1,
          1
        ],
        "baseColorTexture": {
          "index": 0,
          "texCoord": 0
        },
        "metallicFactor": 0,
        "metallicRoughnessTexture": {
          "index": 1,
          "texCoord": 0
        },
        "roughnessFactor": 1
      }
    }
  ],
  "meshes": [
    {
      "name": "Back_low_B.001_Skeleton_0",
      "primitives": [
        {
          "attributes": {
            "COLOR_0": 3,
            "NORMAL": 1,
            "POSITION": 0,
            "TANGENT": 2,
            "TEXCOORD_0": 4
          },
          "indices": 5,
          "material": 0,
          "mode": 4
        }
      ]
    }
  ],
  "nodes": [
    {
      "children": [
        1
      ],
      "name": "RootNode (gltf orientation matrix)",
      "rotation": [
        -0.70710678118654746,
        -0,
        -0,
        0.70710678118654757
      ]
    },
    {
      "children": [
        2
      ],
      "name": "RootNode (model correction matrix)"
    },
    {
      "children": [
        3
      ],
      "matrix": [
        1,
        0,
        0,
        0,
        0,
        0,
        1,
        0,
        0,
        -1,
        0,
        0,
        0,
        0,
        0,
        1
      ],
      "name": "Skeleton.fbx"
    },
    {
      "children": [
        4
      ],
      "name": "RootNode"
    },
    {
      "children": [
        5
      ],
      "matrix": [
        100,
        0,
        0,
        0,
        0,
        99.999999999998664,
        1.6292067073209114e-05,
        0,
        0,
        -1.6292067073209114e-05,
        99.999999999998664,
        0,
        0,
        0,
        0,
        1
      ],
      "name": "Back_low_B.001"
    },
    {
      "mesh": 0,
      "name": "Back_low_B.001_Skeleton_0"
    }
  ],
  "samplers": [
    {
      "magFilter": 9729,
      "minFilter": 9987,
      "wrapS": 10497,
      "wrapT": 10497
    }
  ],
  "scene": 0,
  "scenes": [
    {
      "name": "OSG_Scene",
      "nodes": [
        0
      ]
    }
  ],
  "textures": [
    {
      "sampler": 0,
      "source": 0
    },
    {
      "sampler": 0,
      "source": 1
    },
    {
      "sampler": 0,
      "source": 2
    }
  ]
}

