{
  "accessors": [
    {
      "bufferView": 2,
      "componentType": 5126,
      "count": 49920,
      "max": [
        -2.0045397281646729,
        4.0654258728027344,
        1.0371899604797363
      ],
      "min": [
        -4.8119063377380371,
        -0.60315132141113281,
        -1.0371890068054199
      ],
      "type": "VEC3"
    },
    {
      "bufferView": 2,
      "byteOffset": 599040,
      "componentType": 5126,
      "count": 49920,
      "max": [
        0.99888837337493896,
        0.99987208843231201,
        0.99935203790664673
      ],
      "min": [
        -0.99915856122970581,
        -0.99762487411499023,
        -0.99935203790664673
      ],
      "type": "VEC3"
    },
    {
      "bufferView": 1,
      "componentType": 5126,
      "count": 49920,
      "max": [
        0.85497587919235229,
        0.999015212059021
      ],
      "min": [
        0.0016911341808736324,
        0.00085774273611605167
      ],
      "type": "VEC2"
    },
    {
      "bufferView": 0,
      "componentType": 5125,
      "count": 74880,
      "max": [
        49919
      ],
      "min": [
        0
      ],
      "type": "SCALAR"
    },
    {
      "bufferView": 2,
      "byteOffset": 1198080,
      "componentType": 5126,
      "count": 49920,
      "max": [
        -1.8275104761123657,
        4.0654258728027344,
        1.0371899604797363
      ],
      "min": [
        -5.0321145057678223,
        -0.81883728504180908,
        -1.0371890068054199
      ],
      "type": "VEC3"
    },
    {
      "bufferView": 2,
      "byteOffset": 1797120,
      "componentType": 5126,
      "count": 49920,
      "max": [
        0.99858766794204712,
        0.99987560510635376,
        0.99944931268692017
      ],
      "min": [
        -0.99778634309768677,
        -0.99865704774856567,
        -0.99944913387298584
      ],
      "type": "VEC3"
    },
    {
      "bufferView": 1,
      "byteOffset": 399360,
      "componentType": 5126,
      "count": 49920,
      "max": [
        0.82668876647949219,
        0.99954408407211304
      ],
      "min": [
        0.0033285384997725487,
        0.0025503092911094427
      ],
      "type": "VEC2"
    },
    {
      "bufferView": 0,
      "byteOffset": 299520,
      "componentType": 5125,
      "count": 74880,
      "max": [
        49919
      ],
      "min": [
        0
      ],
      "type": "SCALAR"
    },
    {
      "bufferView": 2,
      "byteOffset": 2396160,
      "componentType": 5126,
      "count": 65532,
      "max": [
        23.764204025268555,
        6.156156063079834,
        1.2040144205093384
      ],
      "min": [
        -11.064413070678711,
        -4.5607647895812988,
        -2.4559178352355957
      ],
      "type": "VEC3"
    },
    {
      "bufferView": 2,
      "byteOffset": 3182544,
      "componentType": 5126,
      "count": 65532,
      "max": [
        0.99925637245178223,
        0.99996870756149292,
        0.99987751245498657
      ],
      "min": [
        -0.99869054555892944,
        -0.9995419979095459,
        -0.99987751245498657
      ],
      "type": "VEC3"
    },
    {
      "bufferView": 1,
      "byteOffset": 798720,
      "componentType": 5126,
      "count": 65532,
      "max": [
        0.88011515140533447,
        0.99979615211486816
      ],
      "min": [
        0.00020395977480802685,
        0.00020395977480802685
      ],
      "type": "VEC2"
    },
    {
      "bufferView": 0,
      "byteOffset": 599040,
      "componentType": 5125,
      "count": 98298,
      "max": [
        65531
      ],
      "min": [
        0
      ],
      "type": "SCALAR"
    },
    {
      "bufferView": 2,
      "byteOffset": 3968928,
      "componentType": 5126,
      "count": 23556,
      "max": [
        2.9393563270568848,
        6.156156063079834,
        0.90236902236938477
      ],
      "min": [
        -3.6330759525299072,
        -7.9084982872009277,
        -0.49602258205413818
      ],
      "type": "VEC3"
    },
    {
      "bufferView": 2,
      "byteOffset": 4251600,
      "componentType": 5126,
      "count": 23556,
      "max": [
        0.9677966833114624,
        0.66410380601882935,
        0.99869066476821899
      ],
      "min": [
        -0.93340784311294556,
        -0.66414177417755127,
        -0.99860066175460815
      ],
      "type": "VEC3"
    },
    {
      "bufferView": 1,
      "byteOffset": 1322976,
      "componentType": 5126,
      "count": 23556,
      "max": [
        0.86683940887451172,
        0.86516314744949341
      ],
      "min": [
        0.33510291576385498,
        0.24233494699001312
      ],
      "type": "VEC2"
    },
    {
      "bufferView": 0,
      "byteOffset": 992232,
      "componentType": 5125,
      "count": 35334,
      "max": [
        23555
      ],
      "min": [
        0
      ],
      "type": "SCALAR"
    },
    {
      "bufferView": 2,
      "byteOffset": 4534272,
      "componentType": 5126,
      "count": 65532,
      "max": [
        18.796630859375,
        6.9278297424316406,
        4.2904043197631836
      ],
      "min": [
        -15.95820140838623,
        -5.2999844551086426,
        -2.5126292705535889
      ],
      "type": "VEC3"
    },
    {
      "bufferView": 2,
      "byteOffset": 5320656,
      "componentType": 5126,
      "count": 65532,
      "max": [
        0.99869054555892944,
        0.99990218877792358,
        0.99997776746749878
      ],
      "min": [
        -0.99869066476821899,
        -0.99947166442871094,
        -0.99999904632568359
      ],
      "type": "VEC3"
    },
    {
      "bufferView": 1,
      "byteOffset": 1511424,
      "componentType": 5126,
      "count": 65532,
      "max": [
        1.0000001192092896,
        1.0000001192092896
      ],
      "min": [
        0,
        0.5
      ],
      "type": "VEC2"
    },
    {
      "bufferView": 0,
      "byteOffset": 1133568,
      "componentType": 5125,
      "count": 98298,
      "max": [
        65531
      ],
      "min": [
        0
      ],
      "type": "SCALAR"
    },
    {
      "bufferView": 2,
      "byteOffset": 6107040,
      "componentType": 5126,
      "count": 13316,
      "max": [
        -3.9056179523468018,
        -1.6478856801986694,
        0.082376047968864441
      ],
      "min": [
        -9.6296625137329102,
        -11.724854469299316,
        -1.5374550819396973
      ],
      "type": "VEC3"
    },
    {
      "bufferView": 2,
      "byteOffset": 6266832,
      "componentType": 5126,
      "count": 13316,
      "max": [
        0.99880999326705933,
        0.65888744592666626,
        0.99869024753570557
      ],
      "min": [
        -0.97259044647216797,
        -0.78718239068984985,
        -0.99869018793106079
      ],
      "type": "VEC3"
    },
    {
      "bufferView": 1,
      "byteOffset": 2035680,
      "componentType": 5126,
      "count": 13316,
      "max": [
        1.0000001192092896,
        1.0000001192092896
      ],
      "min": [
        0,
        0.60000002384185791
      ],
      "type": "VEC2"
    },
    {
      "bufferView": 0,
      "byteOffset": 1526760,
      "componentType": 5125,
      "count": 19974,
      "max": [
        13315
      ],
      "min": [
        0
      ],
      "type": "SCALAR"
    },
    {
      "bufferView": 2,
      "byteOffset": 6426624,
      "componentType": 5126,
      "count": 38592,
      "max": [
        1.8242182731628418,
        1.2710322141647339,
        1.1848940849304199
      ],
      "min": [
        -1.8242180347442627,
        -2.7463417053222656,
        -1.1857197284698486
      ],
      "type": "VEC3"
    },
    {
      "bufferView": 2,
      "byteOffset": 6889728,
      "componentType": 5126,
      "count": 38592,
      "max": [
        0.9980318546295166,
        0.999347984790802,
        0.99961501359939575
      ],
      "min": [
        -0.99803179502487183,
        -0.92084270715713501,
        -0.99957090616226196
      ],
      "type": "VEC3"
    },
    {
      "bufferView": 1,
      "byteOffset": 2142208,
      "componentType": 5126,
      "count": 38592,
      "max": [
        1.0000002384185791,
        1.0000001192092896
      ],
      "min": [
        9.9341086468029971e-09,
        0.099999956786632538
      ],
      "type": "VEC2"
    },
    {
      "bufferView": 0,
      "byteOffset": 1606656,
      "componentType": 5125,
      "count": 57888,
      "max": [
        38591
      ],
      "min": [
        0
      ],
      "type": "SCALAR"
    },
    {
      "bufferView": 2,
      "byteOffset": 7352832,
      "componentType": 5126,
      "count": 40960,
      "max": [
        48.510761260986328,
        27.898597717285156,
        2.4375171661376953
      ],
      "min": [
        -1.8763980865478516,
        -4.6914076805114746,
        -0.96969479322433472
      ],
      "type": "VEC3"
    },
    {
      "bufferView": 2,
      "byteOffset": 7844352,
      "componentType": 5126,
      "count": 40960,
      "max": [
        0.99873083829879761,
        0.98341315984725952,
        0.99959743022918701
      ],
      "min": [
        -0.99856644868850708,
        -0.98158508539199829,
        -0.99941009283065796
      ],
      "type": "VEC3"
    },
    {
      "bufferView": 1,
      "byteOffset": 2450944,
      "componentType": 5126,
      "count": 40960,
      "max": [
        1.0000001192092896,
        1.0000001192092896
      ],
      "min": [
        0,
        0.5
      ],
      "type": "VEC2"
    },
    {
      "bufferView": 0,
      "byteOffset": 1838208,
      "componentType": 5125,
      "count": 61440,
      "max": [
        40959
      ],
      "min": [
        0
      ],
      "type": "SCALAR"
    },
    {
      "bufferView": 2,
      "byteOffset": 8335872,
      "componentType": 5126,
      "count": 40960,
      "max": [
        51.144218444824219,
        17.043201446533203,
        0.90236854553222656
      ],
      "min": [
        -1.8763980865478516,
        -4.6914076805114746,
        -3.2336430549621582
      ],
      "type": "VEC3"
    },
    {
      "bufferView": 2,
      "byteOffset": 8827392,
      "componentType": 5126,
      "count": 40960,
      "max": [
        0.99865543842315674,
        0.99889791011810303,
        0.99955940246582031
      ],
      "min": [
        -0.99881583452224731,
        -0.99887466430664062,
        -0.9989084005355835
      ],
      "type": "VEC3"
    },
    {
      "bufferView": 1,
      "byteOffset": 2778624,
      "componentType": 5126,
      "count": 40960,
      "max": [
        1.0000001192092896,
        1.0000001192092896
      ],
      "min": [
        0,
        0.5
      ],
      "type": "VEC2"
    },
    {
      "bufferView": 0,
      "byteOffset": 2083968,
      "componentType": 5125,
      "count": 61440,
      "max": [
        40959
      ],
      "min": [
        0
      ],
      "type": "SCALAR"
    }
  ],
  "asset": {
    "extras": {
      "author": "Vikrama Raghuraman (https://sketchfab.com/vikrama1998)",
      "license": "CC-BY-4.0 (http://creativecommons.org/licenses/by/4.0/)",
      "source": "https://sketchfab.com/3d-models/excretory-system-d5d3b4e21c9040f8b004c2102913a5d2",
      "title": "Excretory System"
    },
    "generator": "Sketchfab-9.30.0",
    "version": "2.0"
  },
  "bufferViews": [
    {
      "buffer": 0,
      "byteLength": 2329728,
      "byteOffset": 0,
      "name": "floatBufferViews",
      "target": 34963
    },
    {
      "buffer": 0,
      "byteLength": 3106304,
      "byteOffset": 2329728,
      "byteStride": 8,
      "name": "floatBufferViews",
      "target": 34962
    },
    {
      "buffer": 0,
      "byteLength": 9318912,
      "byteOffset": 5436032,
      "byteStride": 12,
      "name": "floatBufferViews",
      "target": 34962
    }
  ],
  "buffers": [
    {
      "byteLength": 14754944,
      "uri": "scene.bin"
    }
  ],
  "images": [
    {
      "uri": "textures/Material.002_baseColor.png"
    },
    {
      "uri": "textures/Material.003_baseColor.png"
    },
    {
      "uri": "textures/Material.004_baseColor.jpeg"
    },
    {
      "uri": "textures/Material.006_baseColor.jpeg"
    }
  ],
  "materials": [
    {
      "doubleSided": true,
      "emissiveFactor": [
        0,
        0,
        0
      ],
      "name": "Material.002",
      "pbrMetallicRoughness": {
        "baseColorFactor": [
          1,
          1,
          1,
          1
        ],
        "baseColorTexture": {
          "index": 0,
          "texCoord": 0
        },
        "metallicFactor": 0,
        "roughnessFactor": 0.5
      }
    },
    {
      "doubleSided": true,
      "emissiveFactor": [
        0,
        0,
        0
      ],
      "name": "Material.001",
      "pbrMetallicRoughness": {
        "baseColorFactor": [
          1,
          1,
          1,
          1
        ],
        "baseColorTexture": {
          "index": 0,
          "texCoord": 0
        },
        "metallicFactor": 0,
        "roughnessFactor": 0.5
      }
    },
    {
      "doubleSided": true,
      "emissiveFactor": [
        0,
        0,
        0
      ],
      "name": "Material.003",
      "pbrMetallicRoughness": {
        "baseColorFactor": [
          1,
          1,
          1,
          1
        ],
        "baseColorTexture": {
          "index": 1,
          "texCoord": 0
        },
        "metallicFactor": 0,
        "roughnessFactor": 0.5
      }
    },
    {
      "doubleSided": true,
      "emissiveFactor": [
        0,
        0,
        0
      ],
      "name": "Material.004",
      "pbrMetallicRoughness": {
        "baseColorFactor": [
          1,
          1,
          1,
          1
        ],
        "baseColorTexture": {
          "index": 2,
          "texCoord": 0
        },
        "metallicFactor": 0,
        "roughnessFactor": 0.5
      }
    },
    {
      "doubleSided": true,
      "emissiveFactor": [
        0,
        0,
        0
      ],
      "name": "Material.007",
      "pbrMetallicRoughness": {
        "baseColorFactor": [
          0.80000000000000004,
          0.45530799999999999,
          0.13032199999999999,
          1
        ],
        "metallicFactor": 0,
        "roughnessFactor": 0.5
      }
    },
    {
      "doubleSided": true,
      "emissiveFactor": [
        0,
        0,
        0
      ],
      "name": "Material.006",
      "pbrMetallicRoughness": {
        "baseColorFactor": [
          1,
          1,
          1,
          1
        ],
        "baseColorTexture": {
          "index": 3,
          "texCoord": 0
        },
        "metallicFactor": 0,
        "roughnessFactor": 0.5
      }
    },
    {
      "doubleSided": true,
      "emissiveFactor": [
        0,
        0,
        0
      ],
      "name": "Material.005",
      "pbrMetallicRoughness": {
        "baseColorFactor": [
          1,
          1,
          1,
          1
        ],
        "baseColorTexture": {
          "index": 3,
          "texCoord": 0
        },
        "metallicFactor": 0,
        "roughnessFactor": 0.5
      }
    }
  ],
  "meshes": [
    {
      "primitives": [
        {
          "attributes": {
            "NORMAL": 1,
            "POSITION": 0,
            "TEXCOORD_0": 2
          },
          "indices": 3,
          "material": 0,
          "mode": 4
        }
      ]
    },
    {
      "primitives": [
        {
          "attributes": {
            "NORMAL": 5,
            "POSITION": 4,
            "TEXCOORD_0": 6
          },
          "indices": 7,
          "material": 1,
          "mode": 4
        }
      ]
    },
    {
      "primitives": [
        {
          "attributes": {
            "NORMAL": 9,
            "POSITION": 8,
            "TEXCOORD_0": 10
          },
          "indices": 11,
          "material": 2,
          "mode": 4
        }
      ]
    },
    {
      "primitives": [
        {
          "attributes": {
            "NORMAL": 13,
            "POSITION": 12,
            "TEXCOORD_0": 14
          },
          "indices": 15,
          "material": 2,
          "mode": 4
        }
      ]
    },
    {
      "primitives": [
        {
          "attributes": {
            "NORMAL": 17,
            "POSITION": 16,
            "TEXCOORD_0": 18
          },
          "indices": 19,
          "material": 3,
          "mode": 4
        }
      ]
    },
    {
      "primitives": [
        {
          "attributes": {
            "NORMAL": 21,
            "POSITION": 20,
            "TEXCOORD_0": 22
          },
          "indices": 23,
          "material": 3,
          "mode": 4
        }
      ]
    },
    {
      "primitives": [
        {
          "attributes": {
            "NORMAL": 25,
            "POSITION": 24,
            "TEXCOORD_0": 26
          },
          "indices": 27,
          "material": 4,
          "mode": 4
        }
      ]
    },
    {
      "primitives": [
        {
          "attributes": {
            "NORMAL": 29,
            "POSITION": 28,
            "TEXCOORD_0": 30
          },
          "indices": 31,
          "material": 5,
          "mode": 4
        }
      ]
    },
    {
      "primitives": [
        {
          "attributes": {
            "NORMAL": 33,
            "POSITION": 32,
            "TEXCOORD_0": 34
          },
          "indices": 35,
          "material": 6,
          "mode": 4
        }
      ]
    }
  ],
  "nodes": [
    {
      "children": [
        1
      ],
      "name": "RootNode (gltf orientation matrix)",
      "rotation": [
        -0.70710678118654746,
        -0,
        -0,
        0.70710678118654757
      ]
    },
    {
      "children": [
        2
      ],
      "name": "RootNode (model correction matrix)"
    },
    {
      "children": [
        3
      ],
      "name": "root"
    },
    {
      "children": [
        4,
        6,
        8,
        11,
        14,
        16,
        18
      ],
      "matrix": [
        1,
        0,
        0,
        0,
        0,
        2.2204460492503131e-16,
        1,
        0,
        0,
        -1,
        2.2204460492503131e-16,
        0,
        0,
        0,
        0,
        1
      ],
      "name": "GLTF_SceneRootNode"
    },
    {
      "children": [
        5
      ],
      "name": "Sphere_3"
    },
    {
      "mesh": 0,
      "name": ""
    },
    {
      "children": [
        7
      ],
      "matrix": [
        -0.99999999999994671,
        0,
        3.2584136988588439e-07,
        0,
        0,
        1,
        0,
        0,
        -3.6100766306448766e-07,
        0,
        -1.1079245805739766,
        0,
        -0.38159799575805664,
        -0.73001396656036377,
        0,
        1
      ],
      "name": "Sphere.001_4"
    },
    {
      "mesh": 1,
      "name": ""
    },
    {
      "children": [
        9,
        10
      ],
      "matrix": [
        2.285675727744401e-08,
        -0.27115619182586576,
        -0,
        0,
        0.43014004826545565,
        3.6258093950608903e-08,
        0,
        0,
        0,
        0,
        0.2711561918258667,
        0,
        0.17533135414123535,
        1.2054029703140259,
        0,
        1
      ],
      "name": "Cylinder.002_5"
    },
    {
      "mesh": 2,
      "name": ""
    },
    {
      "mesh": 3,
      "name": ""
    },
    {
      "children": [
        12,
        13
      ],
      "matrix": [
        2.285675727744401e-08,
        -0.27115619182586576,
        -0,
        0,
        0.30093905329704179,
        2.5367264712625779e-08,
        0,
        0,
        0,
        -0,
        0.2711561918258667,
        0,
        0.5920066237449646,
        -0.14349472522735596,
        -0.28249171376228333,
        1
      ],
      "name": "Cylinder.003_6"
    },
    {
      "mesh": 4,
      "name": ""
    },
    {
      "mesh": 5,
      "name": ""
    },
    {
      "children": [
        15
      ],
      "matrix": [
        1,
        0,
        0,
        0,
        0,
        1,
        0,
        0,
        0,
        0,
        1,
        0,
        -0.3291572630405426,
        -8.8872451782226562,
        0,
        1
      ],
      "name": "Sphere.002_8"
    },
    {
      "mesh": 6,
      "name": ""
    },
    {
      "children": [
        17
      ],
      "matrix": [
        -0.077790423349348756,
        -0.15739445087147913,
        -0,
        0,
        0.15739445087147913,
        -0.077790423349348756,
        0,
        0,
        0,
        0,
        0.17556867003440857,
        0,
        -2.3707265853881836,
        1.2954788208007812,
        0,
        1
      ],
      "name": "Cylinder_9"
    },
    {
      "mesh": 7,
      "name": ""
    },
    {
      "children": [
        19
      ],
      "matrix": [
        0.031300808892071492,
        -0.17275596224937254,
        2.7380149838713349e-08,
        0,
        -0.17275596224937254,
        -0.031300808892066254,
        3.2786814789543009e-08,
        0,
        -2.7380147514859148e-08,
        -3.2786812006805229e-08,
        -0.17556867003440335,
        0,
        2.0822246074676514,
        0.75805360078811646,
        0,
        1
      ],
      "name": "Cylinder.001_10"
    },
    {
      "mesh": 8,
      "name": ""
    }
  ],
  "samplers": [
    {
      "magFilter": 9729,
      "minFilter": 9987,
      "wrapS": 10497,
      "wrapT": 10497
    }
  ],
  "scene": 0,
  "scenes": [
    {
      "name": "OSG_Scene",
      "nodes": [
        0
      ]
    }
  ],
  "textures": [
    {
      "sampler": 0,
      "source": 0
    },
    {
      "sampler": 0,
      "source": 1
    },
    {
      "sampler": 0,
      "source": 2
    },
    {
      "sampler": 0,
      "source": 3
    }
  ]
}

