{
  "accessors": [
    {
      "bufferView": 2,
      "componentType": 5126,
      "count": 23709,
      "max": [
        0.49988150596618652,
        0.5,
        0.26298326253890991
      ],
      "min": [
        -0.5,
        -0.49964931607246399,
        -0.26298326253890991
      ],
      "type": "VEC3"
    },
    {
      "bufferView": 2,
      "byteOffset": 284508,
      "componentType": 5126,
      "count": 23709,
      "max": [
        1,
        1,
        0.99999541044235229
      ],
      "min": [
        -1,
        -0.99506163597106934,
        -0.99999541044235229
      ],
      "type": "VEC3"
    },
    {
      "bufferView": 3,
      "componentType": 5126,
      "count": 23709,
      "max": [
        1,
        1,
        1,
        1
      ],
      "min": [
        1,
        1,
        1,
        1
      ],
      "type": "VEC4"
    },
    {
      "bufferView": 1,
      "componentType": 5126,
      "count": 23709,
      "max": [
        0.9998171329498291,
        0.99978268146514893
      ],
      "min": [
        0.000253334641456604,
        0.095488905906677246
      ],
      "type": "VEC2"
    },
    {
      "bufferView": 1,
      "byteOffset": 189672,
      "componentType": 5126,
      "count": 23709,
      "max": [
        0.9998171329498291,
        0.99978268146514893
      ],
      "min": [
        0.000253334641456604,
        0.095488905906677246
      ],
      "type": "VEC2"
    },
    {
      "bufferView": 1,
      "byteOffset": 379344,
      "componentType": 5126,
      "count": 23709,
      "max": [
        0.9998171329498291,
        0.99978268146514893
      ],
      "min": [
        0.000253334641456604,
        0.095488905906677246
      ],
      "type": "VEC2"
    },
    {
      "bufferView": 1,
      "byteOffset": 569016,
      "componentType": 5126,
      "count": 23709,
      "max": [
        0.9998171329498291,
        0.99978268146514893
      ],
      "min": [
        0.000253334641456604,
        0.095488905906677246
      ],
      "type": "VEC2"
    },
    {
      "bufferView": 1,
      "byteOffset": 758688,
      "componentType": 5126,
      "count": 23709,
      "max": [
        0.9998171329498291,
        0.99978268146514893
      ],
      "min": [
        0.000253334641456604,
        0.095488905906677246
      ],
      "type": "VEC2"
    },
    {
      "bufferView": 1,
      "byteOffset": 948360,
      "componentType": 5126,
      "count": 23709,
      "max": [
        0.9998171329498291,
        0.99978268146514893
      ],
      "min": [
        0.000253334641456604,
        0.095488905906677246
      ],
      "type": "VEC2"
    },
    {
      "bufferView": 1,
      "byteOffset": 1138032,
      "componentType": 5126,
      "count": 23709,
      "max": [
        0.9998171329498291,
        0.99978268146514893
      ],
      "min": [
        0.000253334641456604,
        0.095488905906677246
      ],
      "type": "VEC2"
    },
    {
      "bufferView": 1,
      "byteOffset": 1327704,
      "componentType": 5126,
      "count": 23709,
      "max": [
        0.9998171329498291,
        0.99978268146514893
      ],
      "min": [
        0.000253334641456604,
        0.095488905906677246
      ],
      "type": "VEC2"
    },
    {
      "bufferView": 1,
      "byteOffset": 1517376,
      "componentType": 5126,
      "count": 23709,
      "max": [
        0.9998171329498291,
        0.99978268146514893
      ],
      "min": [
        0.000253334641456604,
        0.095488905906677246
      ],
      "type": "VEC2"
    },
    {
      "bufferView": 0,
      "componentType": 5125,
      "count": 138270,
      "max": [
        23708
      ],
      "min": [
        0
      ],
      "type": "SCALAR"
    }
  ],
  "asset": {
    "extras": {
      "author": "adhesoeryadie (https://sketchfab.com/adhesoeryadie)",
      "license": "CC-BY-4.0 (http://creativecommons.org/licenses/by/4.0/)",
      "source": "https://sketchfab.com/3d-models/organ-lambung-34bbf12325a34dd5abf4feb12587b97a",
      "title": "Organ Lambung"
    },
    "generator": "Sketchfab-7.81.0",
    "version": "2.0"
  },
  "bufferViews": [
    {
      "buffer": 0,
      "byteLength": 553080,
      "byteOffset": 0,
      "name": "floatBufferViews",
      "target": 34963
    },
    {
      "buffer": 0,
      "byteLength": 1707048,
      "byteOffset": 553080,
      "byteStride": 8,
      "name": "floatBufferViews",
      "target": 34962
    },
    {
      "buffer": 0,
      "byteLength": 569016,
      "byteOffset": 2260128,
      "byteStride": 12,
      "name": "floatBufferViews",
      "target": 34962
    },
    {
      "buffer": 0,
      "byteLength": 379344,
      "byteOffset": 2829144,
      "byteStride": 16,
      "name": "floatBufferViews",
      "target": 34962
    }
  ],
  "buffers": [
    {
      "byteLength": 3208488,
      "uri": "scene.bin"
    }
  ],
  "images": [
    {
      "uri": "textures/Material_221_baseColor.png"
    }
  ],
  "materials": [
    {
      "doubleSided": true,
      "emissiveFactor": [
        0,
        0,
        0
      ],
      "name": "Material_221",
      "pbrMetallicRoughness": {
        "baseColorFactor": [
          1,
          1,
          1,
          1
        ],
        "baseColorTexture": {
          "index": 0,
          "texCoord": 0
        },
        "metallicFactor": 0,
        "roughnessFactor": 0.93816163680380649
      }
    }
  ],
  "meshes": [
    {
      "name": "root_Material_221_0",
      "primitives": [
        {
          "attributes": {
            "COLOR_0": 2,
            "NORMAL": 1,
            "POSITION": 0,
            "TEXCOORD_0": 3,
            "TEXCOORD_1": 4,
            "TEXCOORD_2": 5,
            "TEXCOORD_3": 6,
            "TEXCOORD_4": 7,
            "TEXCOORD_5": 8,
            "TEXCOORD_6": 9,
            "TEXCOORD_7": 10,
            "TEXCOORD_8": 11
          },
          "indices": 12,
          "material": 0,
          "mode": 4
        }
      ]
    }
  ],
  "nodes": [
    {
      "children": [
        1
      ],
      "name": "RootNode (gltf orientation matrix)",
      "rotation": [
        -0.70710678118654746,
        -0,
        -0,
        0.70710678118654757
      ]
    },
    {
      "children": [
        2
      ],
      "name": "RootNode (model correction matrix)"
    },
    {
      "children": [
        3
      ],
      "matrix": [
        1,
        0,
        0,
        0,
        0,
        0,
        1,
        0,
        0,
        -1,
        0,
        0,
        0,
        0,
        0,
        1
      ],
      "name": "175c15ddc32f446ba451b782c9ac0e82.fbx"
    },
    {
      "children": [
        4
      ],
      "name": "RootNode"
    },
    {
      "children": [
        5
      ],
      "name": "root"
    },
    {
      "children": [
        6
      ],
      "name": "root"
    },
    {
      "children": [
        7
      ],
      "matrix": [
        -0.24890021979808807,
        3.0481485748280121e-17,
        0,
        0,
        2.9019904998519413e-17,
        0.23696550726890564,
        2.9019904998519413e-17,
        0,
        1.8664519155586663e-33,
        1.5240736487109286e-17,
        -0.12445005774497986,
        0,
        -0.011036191135644913,
        -0.005035660695284605,
        0.17575879395008087,
        1
      ],
      "name": ""
    },
    {
      "mesh": 0,
      "name": "root_Material_221_0"
    }
  ],
  "samplers": [
    {
      "magFilter": 9729,
      "minFilter": 9987,
      "wrapS": 10497,
      "wrapT": 10497
    }
  ],
  "scene": 0,
  "scenes": [
    {
      "name": "OSG_Scene",
      "nodes": [
        0
      ]
    }
  ],
  "textures": [
    {
      "sampler": 0,
      "source": 0
    }
  ]
}

