{
    "asset" : {
        "generator" : "Khronos glTF Blender I/O v1.6.16",
        "version" : "2.0"
    },
    "scene" : 0,
    "scenes" : [
        {
            "name" : "Scene",
            "nodes" : [
                0,
                1,
                2,
                3,
                4,
                5,
                6,
                7,
                8
            ]
        }
    ],
    "nodes" : [
        {
            "mesh" : 0,
            "name" : "Cylinder",
            "rotation" : [
                0,
                0,
                -0.8067447543144226,
                0.5909000635147095
            ],
            "scale" : [
                1,
                1.7186132669448853,
                1
            ],
            "translation" : [
                -0.1263272911310196,
                -0.7965965867042542,
                0
            ]
        },
        {
            "mesh" : 1,
            "name" : "Cylinder.001",
            "rotation" : [
                0,
                0,
                -0.8067447543144226,
                0.5909000635147095
            ],
            "scale" : [
                0.26874667406082153,
                0.46187159419059753,
                0.26874667406082153
            ],
            "translation" : [
                -2.205225706100464,
                -0.13880030810832977,
                0
            ]
        },
        {
            "mesh" : 2,
            "name" : "Cylinder.002",
            "rotation" : [
                0,
                0,
                -1,
                7.549790126404332e-08
            ],
            "scale" : [
                0.13870075345039368,
                4.23324728012085,
                0.13870075345039368
            ],
            "translation" : [
                -3.255312442779541,
                5.610991477966309,
                0
            ]
        },
        {
            "mesh" : 3,
            "name" : "Cylinder.003",
            "rotation" : [
                0,
                0,
                -1,
                7.549790126404332e-08
            ],
            "scale" : [
                0.8754663467407227,
                0.46481651067733765,
                0.8754663467407227
            ],
            "translation" : [
                -3.255312442779541,
                10.846091270446777,
                0
            ]
        },
        {
            "mesh" : 4,
            "name" : "Cylinder.004",
            "rotation" : [
                0,
                0,
                -1,
                7.549790126404332e-08
            ],
            "scale" : [
                0.20203877985477448,
                0.616637110710144,
                0.20203877985477448
            ],
            "translation" : [
                -3.255312442779541,
                0.7611069679260254,
                0
            ]
        },
        {
            "mesh" : 5,
            "name" : "Cylinder.005",
            "rotation" : [
                0,
                0,
                -1,
                7.549790126404332e-08
            ],
            "scale" : [
                0.20203877985477448,
                0.2685185968875885,
                0.20203877985477448
            ],
            "translation" : [
                -3.255312442779541,
                10.112756729125977,
                0
            ]
        },
        {
            "mesh" : 6,
            "name" : "Cylinder.006",
            "rotation" : [
                0,
                0,
                -1,
                7.549790126404332e-08
            ],
            "scale" : [
                0.047259390354156494,
                0.027204889804124832,
                0.047259390354156494
            ],
            "translation" : [
                -3.25531005859375,
                10.354070663452148,
                0.4959850013256073
            ]
        },
        {
            "mesh" : 7,
            "name" : "Cylinder.007",
            "rotation" : [
                0,
                0,
                -1,
                7.549790126404332e-08
            ],
            "scale" : [
                0.047259390354156494,
                0.027204889804124832,
                0.047259390354156494
            ],
            "translation" : [
                -3.255312442779541,
                10.354070663452148,
                -0.4959850013256073
            ]
        },
        {
            "mesh" : 8,
            "name" : "Cube",
            "rotation" : [
                0,
                0,
                -0.15262530744075775,
                0.9882841110229492
            ],
            "scale" : [
                0.38708412647247314,
                0.2108154296875,
                0.2108154296875
            ],
            "translation" : [
                -3.0382020473480225,
                0.12476655840873718,
                0
            ]
        }
    ],
    "materials" : [
        {
            "doubleSided" : true,
            "name" : "Material",
            "pbrMetallicRoughness" : {
                "baseColorFactor" : [
                    0.011087759397923946,
                    0.011087759397923946,
                    0.011087759397923946,
                    1
                ],
                "metallicFactor" : 0.9653465151786804,
                "roughnessFactor" : 0.04851484298706055
            }
        }
    ],
    "meshes" : [
        {
            "name" : "Cylinder",
            "primitives" : [
                {
                    "attributes" : {
                        "POSITION" : 0,
                        "NORMAL" : 1,
                        "TEXCOORD_0" : 2
                    },
                    "indices" : 3,
                    "material" : 0
                }
            ]
        },
        {
            "name" : "Cylinder.001",
            "primitives" : [
                {
                    "attributes" : {
                        "POSITION" : 4,
                        "NORMAL" : 5,
                        "TEXCOORD_0" : 6
                    },
                    "indices" : 7,
                    "material" : 0
                }
            ]
        },
        {
            "name" : "Cylinder.002",
            "primitives" : [
                {
                    "attributes" : {
                        "POSITION" : 8,
                        "NORMAL" : 9,
                        "TEXCOORD_0" : 10
                    },
                    "indices" : 7,
                    "material" : 0
                }
            ]
        },
        {
            "name" : "Cylinder.003",
            "primitives" : [
                {
                    "attributes" : {
                        "POSITION" : 11,
                        "NORMAL" : 12,
                        "TEXCOORD_0" : 13
                    },
                    "indices" : 7,
                    "material" : 0
                }
            ]
        },
        {
            "name" : "Cylinder.004",
            "primitives" : [
                {
                    "attributes" : {
                        "POSITION" : 14,
                        "NORMAL" : 15,
                        "TEXCOORD_0" : 16
                    },
                    "indices" : 7,
                    "material" : 0
                }
            ]
        },
        {
            "name" : "Cylinder.005",
            "primitives" : [
                {
                    "attributes" : {
                        "POSITION" : 17,
                        "NORMAL" : 18,
                        "TEXCOORD_0" : 19
                    },
                    "indices" : 7,
                    "material" : 0
                }
            ]
        },
        {
            "name" : "Cylinder.006",
            "primitives" : [
                {
                    "attributes" : {
                        "POSITION" : 20,
                        "NORMAL" : 21,
                        "TEXCOORD_0" : 22
                    },
                    "indices" : 7,
                    "material" : 0
                }
            ]
        },
        {
            "name" : "Cylinder.007",
            "primitives" : [
                {
                    "attributes" : {
                        "POSITION" : 23,
                        "NORMAL" : 24,
                        "TEXCOORD_0" : 25
                    },
                    "indices" : 7,
                    "material" : 0
                }
            ]
        },
        {
            "name" : "Cube",
            "primitives" : [
                {
                    "attributes" : {
                        "POSITION" : 26,
                        "NORMAL" : 27,
                        "TEXCOORD_0" : 28
                    },
                    "indices" : 29,
                    "material" : 0
                }
            ]
        }
    ],
    "accessors" : [
        {
            "bufferView" : 0,
            "componentType" : 5126,
            "count" : 196,
            "max" : [
                1,
                1,
                1
            ],
            "min" : [
                -1,
                -1,
                -1
            ],
            "type" : "VEC3"
        },
        {
            "bufferView" : 1,
            "componentType" : 5126,
            "count" : 196,
            "type" : "VEC3"
        },
        {
            "bufferView" : 2,
            "componentType" : 5126,
            "count" : 196,
            "type" : "VEC2"
        },
        {
            "bufferView" : 3,
            "componentType" : 5123,
            "count" : 564,
            "type" : "SCALAR"
        },
        {
            "bufferView" : 4,
            "componentType" : 5126,
            "count" : 130,
            "max" : [
                1,
                1,
                1
            ],
            "min" : [
                -1,
                -1,
                -1
            ],
            "type" : "VEC3"
        },
        {
            "bufferView" : 5,
            "componentType" : 5126,
            "count" : 130,
            "type" : "VEC3"
        },
        {
            "bufferView" : 6,
            "componentType" : 5126,
            "count" : 130,
            "type" : "VEC2"
        },
        {
            "bufferView" : 7,
            "componentType" : 5123,
            "count" : 372,
            "type" : "SCALAR"
        },
        {
            "bufferView" : 8,
            "componentType" : 5126,
            "count" : 130,
            "max" : [
                1,
                1,
                1
            ],
            "min" : [
                -1,
                -1,
                -1
            ],
            "type" : "VEC3"
        },
        {
            "bufferView" : 9,
            "componentType" : 5126,
            "count" : 130,
            "type" : "VEC3"
        },
        {
            "bufferView" : 10,
            "componentType" : 5126,
            "count" : 130,
            "type" : "VEC2"
        },
        {
            "bufferView" : 11,
            "componentType" : 5126,
            "count" : 130,
            "max" : [
                1,
                1,
                1
            ],
            "min" : [
                -1,
                -1,
                -1
            ],
            "type" : "VEC3"
        },
        {
            "bufferView" : 12,
            "componentType" : 5126,
            "count" : 130,
            "type" : "VEC3"
        },
        {
            "bufferView" : 13,
            "componentType" : 5126,
            "count" : 130,
            "type" : "VEC2"
        },
        {
            "bufferView" : 14,
            "componentType" : 5126,
            "count" : 130,
            "max" : [
                1,
                1,
                1
            ],
            "min" : [
                -1,
                -1,
                -1
            ],
            "type" : "VEC3"
        },
        {
            "bufferView" : 15,
            "componentType" : 5126,
            "count" : 130,
            "type" : "VEC3"
        },
        {
            "bufferView" : 16,
            "componentType" : 5126,
            "count" : 130,
            "type" : "VEC2"
        },
        {
            "bufferView" : 17,
            "componentType" : 5126,
            "count" : 130,
            "max" : [
                1,
                1,
                1
            ],
            "min" : [
                -1,
                -1,
                -1
            ],
            "type" : "VEC3"
        },
        {
            "bufferView" : 18,
            "componentType" : 5126,
            "count" : 130,
            "type" : "VEC3"
        },
        {
            "bufferView" : 19,
            "componentType" : 5126,
            "count" : 130,
            "type" : "VEC2"
        },
        {
            "bufferView" : 20,
            "componentType" : 5126,
            "count" : 130,
            "max" : [
                1,
                1,
                1
            ],
            "min" : [
                -1,
                -1,
                -1
            ],
            "type" : "VEC3"
        },
        {
            "bufferView" : 21,
            "componentType" : 5126,
            "count" : 130,
            "type" : "VEC3"
        },
        {
            "bufferView" : 22,
            "componentType" : 5126,
            "count" : 130,
            "type" : "VEC2"
        },
        {
            "bufferView" : 23,
            "componentType" : 5126,
            "count" : 130,
            "max" : [
                1,
                1,
                1
            ],
            "min" : [
                -1,
                -1,
                -1
            ],
            "type" : "VEC3"
        },
        {
            "bufferView" : 24,
            "componentType" : 5126,
            "count" : 130,
            "type" : "VEC3"
        },
        {
            "bufferView" : 25,
            "componentType" : 5126,
            "count" : 130,
            "type" : "VEC2"
        },
        {
            "bufferView" : 26,
            "componentType" : 5126,
            "count" : 24,
            "max" : [
                1,
                1,
                1
            ],
            "min" : [
                -1,
                -1,
                -1
            ],
            "type" : "VEC3"
        },
        {
            "bufferView" : 27,
            "componentType" : 5126,
            "count" : 24,
            "type" : "VEC3"
        },
        {
            "bufferView" : 28,
            "componentType" : 5126,
            "count" : 24,
            "type" : "VEC2"
        },
        {
            "bufferView" : 29,
            "componentType" : 5123,
            "count" : 36,
            "type" : "SCALAR"
        }
    ],
    "bufferViews" : [
        {
            "buffer" : 0,
            "byteLength" : 2352,
            "byteOffset" : 0
        },
        {
            "buffer" : 0,
            "byteLength" : 2352,
            "byteOffset" : 2352
        },
        {
            "buffer" : 0,
            "byteLength" : 1568,
            "byteOffset" : 4704
        },
        {
            "buffer" : 0,
            "byteLength" : 1128,
            "byteOffset" : 6272
        },
        {
            "buffer" : 0,
            "byteLength" : 1560,
            "byteOffset" : 7400
        },
        {
            "buffer" : 0,
            "byteLength" : 1560,
            "byteOffset" : 8960
        },
        {
            "buffer" : 0,
            "byteLength" : 1040,
            "byteOffset" : 10520
        },
        {
            "buffer" : 0,
            "byteLength" : 744,
            "byteOffset" : 11560
        },
        {
            "buffer" : 0,
            "byteLength" : 1560,
            "byteOffset" : 12304
        },
        {
            "buffer" : 0,
            "byteLength" : 1560,
            "byteOffset" : 13864
        },
        {
            "buffer" : 0,
            "byteLength" : 1040,
            "byteOffset" : 15424
        },
        {
            "buffer" : 0,
            "byteLength" : 1560,
            "byteOffset" : 16464
        },
        {
            "buffer" : 0,
            "byteLength" : 1560,
            "byteOffset" : 18024
        },
        {
            "buffer" : 0,
            "byteLength" : 1040,
            "byteOffset" : 19584
        },
        {
            "buffer" : 0,
            "byteLength" : 1560,
            "byteOffset" : 20624
        },
        {
            "buffer" : 0,
            "byteLength" : 1560,
            "byteOffset" : 22184
        },
        {
            "buffer" : 0,
            "byteLength" : 1040,
            "byteOffset" : 23744
        },
        {
            "buffer" : 0,
            "byteLength" : 1560,
            "byteOffset" : 24784
        },
        {
            "buffer" : 0,
            "byteLength" : 1560,
            "byteOffset" : 26344
        },
        {
            "buffer" : 0,
            "byteLength" : 1040,
            "byteOffset" : 27904
        },
        {
            "buffer" : 0,
            "byteLength" : 1560,
            "byteOffset" : 28944
        },
        {
            "buffer" : 0,
            "byteLength" : 1560,
            "byteOffset" : 30504
        },
        {
            "buffer" : 0,
            "byteLength" : 1040,
            "byteOffset" : 32064
        },
        {
            "buffer" : 0,
            "byteLength" : 1560,
            "byteOffset" : 33104
        },
        {
            "buffer" : 0,
            "byteLength" : 1560,
            "byteOffset" : 34664
        },
        {
            "buffer" : 0,
            "byteLength" : 1040,
            "byteOffset" : 36224
        },
        {
            "buffer" : 0,
            "byteLength" : 288,
            "byteOffset" : 37264
        },
        {
            "buffer" : 0,
            "byteLength" : 288,
            "byteOffset" : 37552
        },
        {
            "buffer" : 0,
            "byteLength" : 192,
            "byteOffset" : 37840
        },
        {
            "buffer" : 0,
            "byteLength" : 72,
            "byteOffset" : 38032
        }
    ],
    "buffers" : [
        {
            "byteLength" : 38104,
            "uri" : "DirectionalLight.bin"
        }
    ]
}
